<svg width="78" height="25" viewBox="0 0 78 25" fill="none" xmlns="http://www.w3.org/2000/svg">
<path d="M0.213623 23.6922H9.10297C13.7762 23.6922 16.2652 20.9229 16.2652 17.1612C16.2652 13.6649 14.0607 11.5533 11.6936 11.4264V11.1956C13.8575 10.6417 15.4525 8.89935 15.4525 6.11847C15.4525 2.57603 13.1362 0.0605469 8.54421 0.0605469H0.213623V23.6922ZM4.61258 19.6074V13.3303H8.30039C10.4135 13.3303 11.7241 14.715 11.7241 16.665C11.7241 18.442 10.6573 19.6074 8.19879 19.6074H4.61258ZM4.61258 9.94939V4.09916H7.95497C9.90555 4.09916 11.0129 5.24151 11.0129 6.94927C11.0129 8.81857 9.67188 9.94939 7.8737 9.94939H4.61258Z" fill="#8CB7F5"/>
<path d="M18.5182 23.6922H22.846V13.6649C22.846 11.4841 24.248 9.984 26.1579 9.984C26.7573 9.984 27.5802 10.0994 27.9866 10.2494V5.88769C27.6005 5.78384 27.0621 5.71461 26.6253 5.71461C24.8779 5.71461 23.4454 6.8685 22.8765 9.06089H22.7139V5.96846H18.5182V23.6922Z" fill="#8CB7F5"/>
<path d="M33.6988 24.0268C36.0049 24.0268 37.4983 22.8845 38.2603 21.2344H38.3822V23.6922H42.4865V11.7379C42.4865 7.51468 39.3371 5.73769 35.8627 5.73769C32.1241 5.73769 29.6655 7.76853 29.0661 10.9994L33.0689 11.3687C33.3635 10.1917 34.288 9.32629 35.8424 9.32629C37.3155 9.32629 38.1587 10.1686 38.1587 11.6225V11.6918C38.1587 12.8341 37.092 12.9841 34.3794 13.2841C31.291 13.6072 28.5175 14.7842 28.5175 18.742C28.5175 22.2499 30.7221 24.0268 33.6988 24.0268ZM34.9382 20.6344C33.6073 20.6344 32.6524 19.9305 32.6524 18.5805C32.6524 17.1958 33.6581 16.515 35.182 16.2727C36.1268 16.1227 37.671 15.8688 38.1891 15.4765V17.3574C38.1891 19.2151 36.838 20.6344 34.9382 20.6344Z" fill="#8CB7F5"/>
<path d="M49.6438 13.4457C49.654 11.161 50.8528 9.82246 52.6002 9.82246C54.3374 9.82246 55.3838 11.1148 55.3736 13.2841V23.6922H59.7015V12.4072C59.7015 8.27624 57.568 5.73769 54.3171 5.73769C52.0008 5.73769 50.3245 7.03004 49.6235 9.09551H49.4406V5.96846H45.316V23.6922H49.6438V13.4457Z" fill="#8CB7F5"/>
<path d="M68.3344 23.9807C70.8539 23.9807 72.1645 22.3306 72.7639 20.8537H72.9467V23.6922H77.2136V0.0605469H72.8959V8.9455H72.7639C72.1848 7.50314 70.9352 5.73769 68.3243 5.73769C64.9006 5.73769 62.0052 8.76088 62.0052 14.8534C62.0052 20.7844 64.7787 23.9807 68.3344 23.9807ZM69.7059 20.069C67.5826 20.069 66.4245 17.9228 66.4245 14.8303C66.4245 11.761 67.5623 9.64937 69.7059 9.64937C71.8089 9.64937 72.9874 11.6687 72.9874 14.8303C72.9874 17.992 71.7886 20.069 69.7059 20.069Z" fill="#8CB7F5"/>
</svg>
