<svg width="32" height="37" viewBox="0 0 32 37" fill="none" xmlns="http://www.w3.org/2000/svg">
<rect width="32" height="36.3457" transform="translate(0 0.408203)" fill="#FCB76C"/>
<path fill-rule="evenodd" clip-rule="evenodd" d="M16.0175 21.8699C17.6103 21.8699 18.9022 20.4068 18.9022 18.6009C18.9022 16.796 17.6103 15.333 16.0175 15.333C14.4247 15.333 13.1328 16.796 13.1328 18.6009C13.1328 20.4068 14.4247 21.8699 16.0175 21.8699ZM19.3392 15.2533H21.367C21.5986 15.2533 21.787 15.0404 21.787 14.7784V12.4795C21.787 12.2176 21.5986 12.0046 21.367 12.0046H19.3392C19.1076 12.0046 18.9192 12.2176 18.9192 12.4795V14.7784C18.9192 15.0404 19.1076 15.2533 19.3392 15.2533ZM23.5 25.0795C23.5 26.1954 22.7022 27.1005 21.7169 27.1005H10.2831C9.29875 27.1005 8.5 26.1954 8.5 25.0795V12.0834C8.5 10.9675 9.29875 10.0634 10.2831 10.0634H21.7169C22.7022 10.0634 23.5 10.9675 23.5 12.0834V25.0795ZM16 1.54492C7.71531 1.54492 1 9.17219 1 18.582C1 27.9907 7.71531 35.619 16 35.619C24.2847 35.619 31 27.9907 31 18.582C31 9.17219 24.2847 1.54492 16 1.54492ZM20.5804 18.6013C20.5804 21.4518 18.5339 23.7721 16.0176 23.7721C13.5014 23.7721 11.4548 21.4518 11.4548 18.6013C11.4548 18.1286 11.5111 17.6696 11.617 17.2341H10.2136V24.6431C10.2136 24.9061 10.4011 25.1191 10.6326 25.1191H21.4017C21.6342 25.1191 21.8217 24.9061 21.8217 24.6431V17.2341H20.4183C20.5242 17.6696 20.5804 18.1286 20.5804 18.6013Z" fill="white"/>
</svg>
