<svg width="32" height="37" viewBox="0 0 32 37" fill="none" xmlns="http://www.w3.org/2000/svg">
<rect width="32" height="36.3457" transform="translate(0 0.408203)" fill="#FCB76C"/>
<path fill-rule="evenodd" clip-rule="evenodd" d="M23.5 27.0845H20.3922V21.5602C20.3922 20.2431 20.3716 18.5489 18.7769 18.5489C17.1597 18.5489 16.9131 19.9843 16.9131 21.4665V27.0845H13.8081V15.7251H16.7875V17.2786H16.8306C17.245 16.3852 18.2594 15.4429 19.7716 15.4429C22.9187 15.4429 23.5 17.7951 23.5 20.8543V27.0845ZM10.3038 14.1736C9.30531 14.1736 8.5 13.2558 8.5 12.126C8.5 10.9962 9.30531 10.0783 10.3038 10.0783C11.2975 10.0783 12.1047 10.9962 12.1047 12.126C12.1047 13.2558 11.2975 14.1736 10.3038 14.1736ZM11.8581 27.0845H8.74656V15.7251H11.8581V27.0845ZM16 1.54492C7.71531 1.54492 1 9.17219 1 18.582C1 27.9907 7.71531 35.619 16 35.619C24.2847 35.619 31 27.9907 31 18.582C31 9.17219 24.2847 1.54492 16 1.54492Z" fill="white"/>
</svg>
