<svg width="32" height="37" viewBox="0 0 32 37" fill="none" xmlns="http://www.w3.org/2000/svg">
<rect width="32" height="36.3457" transform="translate(0 0.408203)" fill="#FCB76C"/>
<path fill-rule="evenodd" clip-rule="evenodd" d="M23.5 19.2251C23.5 20.604 23.35 21.983 23.35 21.983C23.35 21.983 23.2038 23.1564 22.7537 23.6739C22.1838 24.3522 21.5444 24.3554 21.2509 24.3948C19.1519 24.5673 16 24.5726 16 24.5726C16 24.5726 12.1 24.5321 10.9 24.4022C10.5662 24.3309 9.81625 24.3522 9.24625 23.6739C8.79625 23.1564 8.65 21.983 8.65 21.983C8.65 21.983 8.5 20.604 8.5 19.2251V17.9324C8.5 16.5535 8.65 15.1756 8.65 15.1756C8.65 15.1756 8.79625 14.0011 9.24625 13.4836C9.81625 12.8053 10.4556 12.8021 10.7491 12.7627C12.8481 12.5902 15.9972 12.5902 15.9972 12.5902H16.0028C16.0028 12.5902 19.1519 12.5902 21.2509 12.7627C21.5444 12.8021 22.1838 12.8053 22.7537 13.4836C23.2038 14.0011 23.35 15.1756 23.35 15.1756C23.35 15.1756 23.5 16.5535 23.5 17.9324V19.2251ZM16 1.54492C7.71531 1.54492 1 9.17219 1 18.582C1 27.9907 7.71531 35.619 16 35.619C24.2847 35.619 31 27.9907 31 18.582C31 9.17219 24.2847 1.54492 16 1.54492ZM14.4514 20.7914L18.5042 18.4063L14.4505 16.004L14.4514 20.7914Z" fill="white"/>
</svg>
