<svg width="32" height="37" viewBox="0 0 32 37" fill="none" xmlns="http://www.w3.org/2000/svg">
<rect width="32" height="36.3457" transform="translate(0 0.408203)" fill="#FCB76C"/>
<path fill-rule="evenodd" clip-rule="evenodd" d="M19.8953 12.8916L18.4834 12.8926C17.3762 12.8926 17.1616 13.49 17.1616 14.3664V16.3001H19.8025L19.4584 19.3295H17.1616V27.1005H14.4081V19.3295H12.1056V16.3001H14.4081V14.0671C14.4081 11.4743 15.8022 10.0634 17.8375 10.0634C18.8125 10.0634 19.6506 10.1454 19.8953 10.1827V12.8916ZM16 1.54492C7.71625 1.54492 1 9.17219 1 18.582C1 27.9907 7.71625 35.619 16 35.619C24.2847 35.619 31 27.9907 31 18.582C31 9.17219 24.2847 1.54492 16 1.54492Z" fill="white"/>
</svg>
