<svg width="32" height="37" viewBox="0 0 32 37" fill="none" xmlns="http://www.w3.org/2000/svg">
<rect width="32" height="36.3457" transform="translate(0 0.408203)" fill="#FCB76C"/>
<path fill-rule="evenodd" clip-rule="evenodd" d="M21.9644 15.1075C21.97 15.2576 21.9738 15.4077 21.9738 15.56C21.9738 20.1781 18.8781 25.5043 13.2175 25.5043C11.4794 25.5043 9.86219 24.9261 8.5 23.9348C8.74094 23.9667 8.98562 23.9827 9.23406 23.9827C10.6759 23.9827 12.0025 23.4247 13.0562 22.4866C11.7091 22.4589 10.5728 21.4484 10.1809 20.0599C10.3694 20.1004 10.5616 20.1217 10.7603 20.1217C11.0406 20.1217 11.3125 20.0791 11.5712 19.9992C10.1631 19.6787 9.10281 18.2657 9.10281 16.5726C9.10281 16.5577 9.10281 16.5428 9.10281 16.5279C9.51719 16.7899 9.9925 16.9475 10.4969 16.9656C9.67094 16.3384 9.12719 15.2683 9.12719 14.0565C9.12719 13.4155 9.27906 12.8149 9.54437 12.2985C11.0622 14.4132 13.33 15.8049 15.8875 15.9508C15.835 15.6952 15.8078 15.428 15.8078 15.1543C15.8078 13.2238 17.1859 11.6585 18.8847 11.6585C19.7706 11.6585 20.5703 12.0834 21.1309 12.7627C21.8322 12.6062 22.4912 12.3155 23.0856 11.9152C22.8559 12.7308 22.3675 13.4155 21.7328 13.8489C22.3553 13.7637 22.9478 13.5763 23.5 13.2983C23.0875 13.999 22.5653 14.6145 21.9644 15.1075ZM16 1.54492C7.71531 1.54492 1 9.17219 1 18.582C1 27.9907 7.71531 35.619 16 35.619C24.2847 35.619 31 27.9907 31 18.582C31 9.17219 24.2847 1.54492 16 1.54492Z" fill="white"/>
</svg>
