<svg width="104" height="29" viewBox="0 0 104 29" fill="none" xmlns="http://www.w3.org/2000/svg">
<path d="M28.1173 2.95592H25.5787V3.80536H27.3793C27.2902 4.99662 26.4113 5.50465 25.5818 5.50465C24.5204 5.50465 23.5941 4.56297 23.5941 3.24304C23.5941 1.95732 24.477 0.967164 25.584 0.967164C26.4383 0.967164 26.9415 1.58101 26.9415 1.58101L27.4689 0.965087C27.4689 0.965087 26.7919 0.115234 25.5571 0.115234C23.9847 0.115234 22.7684 1.61162 22.7684 3.2278C22.7684 4.81172 23.9126 6.35589 25.5971 6.35589C27.0788 6.35589 28.1634 5.21158 28.1634 3.51921C28.1634 3.16215 28.1173 2.95592 28.1173 2.95592Z" fill="white"/>
<path d="M28.5957 16.6466H34.1741C34.178 16.6645 34.275 17.1155 34.275 17.8842C34.275 21.603 31.8918 24.1179 28.6362 24.1179C24.9344 24.1179 22.4202 20.7244 22.4202 17.2443C22.4202 13.6927 25.0931 10.4045 28.5481 10.4046C31.2614 10.4046 32.7492 12.272 32.7492 12.272L31.59 13.6255C31.59 13.6255 30.4842 12.2763 28.6073 12.2763C26.1749 12.2763 24.2348 14.4522 24.2348 17.2775C24.2348 20.1776 26.27 22.247 28.6023 22.247C30.4252 22.247 32.3565 21.1307 32.552 18.5132H28.5957V16.6466Z" fill="white"/>
<path fill-rule="evenodd" clip-rule="evenodd" d="M34.9867 19.6663C34.9867 17.3127 36.6271 15.2948 38.9162 15.2948C40.7978 15.2948 42.8382 16.7983 42.8382 19.7175C42.8382 22.2644 41.0841 24.1099 38.9429 24.1099C36.5777 24.1099 34.9867 22.0545 34.9867 19.6663ZM41.1313 19.7059C41.1313 18.0523 40.0646 17.026 38.9389 17.026C37.6741 17.026 36.702 18.1663 36.702 19.693C36.702 21.2532 37.6862 22.3798 38.9337 22.3798C40.069 22.3798 41.1313 21.3243 41.1313 19.7059Z" fill="white"/>
<path fill-rule="evenodd" clip-rule="evenodd" d="M47.5551 15.2948C45.266 15.2948 43.6255 17.3127 43.6255 19.6663C43.6255 22.0545 45.2166 24.1099 47.582 24.1099C49.723 24.1099 51.4772 22.2644 51.4772 19.7175C51.4772 16.7983 49.4368 15.2948 47.5551 15.2948ZM47.5778 17.026C48.7034 17.026 49.7702 18.0523 49.7702 19.7059C49.7702 21.3243 48.7079 22.3798 47.5725 22.3798C46.3252 22.3798 45.341 21.2532 45.341 19.693C45.341 18.1663 46.3129 17.026 47.5778 17.026Z" fill="white"/>
<path fill-rule="evenodd" clip-rule="evenodd" d="M52.2641 19.7034C52.2641 17.3745 53.9158 15.2996 56.0167 15.2996C56.9315 15.2996 57.6205 15.6987 58.1244 16.311V15.5645H59.7632V23.4844C59.7632 26.5961 58.1711 28.0795 56.082 28.0795C54.1722 28.0795 53.0994 26.7554 52.5663 25.4841L54.0686 24.7759C54.2767 25.3439 54.8756 26.3454 56.0695 26.3454C57.3055 26.3454 58.1243 25.4344 58.1243 23.9137V23.0446C57.687 23.6169 57.0947 24.1157 55.9805 24.1157C54.1788 24.1157 52.2641 22.3564 52.2641 19.7034ZM56.1688 17.0272C57.199 17.0272 58.2568 18.0191 58.2568 19.7128C58.2568 21.4344 57.2012 22.3831 56.1461 22.3831C55.0261 22.3831 53.9838 21.3577 53.9838 19.7292C53.9838 18.0371 55.0663 17.0272 56.1688 17.0272Z" fill="white"/>
<path fill-rule="evenodd" clip-rule="evenodd" d="M63.7486 19.6906C63.7486 17.067 65.4125 15.2889 67.3944 15.2889C68.9575 15.2889 70.1387 16.4645 70.645 17.8718L70.9172 18.5905L65.6759 21.0427C65.989 21.6999 66.4943 22.3784 67.593 22.3786C68.5712 22.3786 69.1575 21.7789 69.5082 21.1651L70.8593 22.179C70.2535 23.0931 69.2386 24.1132 67.5848 24.1132C65.6033 24.1132 63.7486 22.4668 63.7486 19.6906ZM67.4628 16.9842C68.177 16.9842 68.6909 17.4121 68.9092 17.9256L65.409 19.5751C65.2581 18.298 66.3313 16.9842 67.4628 16.9842Z" fill="white"/>
<path d="M62.7991 23.8515H61.0775V10.8604H62.7991V23.8515Z" fill="white"/>
<path d="M84.1596 23.8515H85.8812V10.8604H84.1596V23.8515Z" fill="white"/>
<path fill-rule="evenodd" clip-rule="evenodd" d="M76.7517 23.8515H75.0301V10.8604L79.1945 10.8603C81.2132 10.8603 82.8648 12.7226 82.8648 14.9989C82.8648 17.275 81.2132 19.1373 79.1945 19.1373H76.7517V23.8515ZM76.7516 17.1961V12.8015H79.1945C80.263 12.8015 81.1433 13.794 81.1433 14.9989C81.1433 16.2036 80.263 17.1961 79.1945 17.1961H76.7516Z" fill="white"/>
<path d="M98.5919 28.0795L103.577 15.2892H101.696L99.4406 21.0771L97.1849 15.2892H95.3046L98.5004 23.4896L96.7116 28.0795H98.5919Z" fill="white"/>
<path fill-rule="evenodd" clip-rule="evenodd" d="M92.9271 23.8515H94.6487V19.1792C94.9181 14.3602 89.4999 13.2269 87.4497 16.7008L88.8351 17.749C89.8375 15.7728 92.698 16.2275 92.8861 18.3454C92.0264 18.0886 91.0977 17.9024 90.2491 17.9993C88.9247 18.1504 87.7907 19.0988 87.6105 20.6523C87.5131 21.4917 87.6793 22.5265 88.199 23.1571C89.0089 24.1396 90.3387 24.272 91.4311 23.9363C92.0462 23.7473 92.5304 23.3352 92.9271 22.8029V23.8515ZM91.0219 22.243C91.9641 21.9536 92.7069 21.1765 92.9271 20.0962C92.4454 19.9203 92.0022 19.7783 91.4943 19.7092C88.5359 19.2077 89.0312 22.8549 91.0219 22.243Z" fill="white"/>
<path d="M39.2771 6.23484H38.4937V0.322711H39.2771V6.23484Z" fill="white"/>
<path d="M34.1061 6.23484H34.8896V1.20608H36.1757V0.322711H32.82V1.20608H34.1061V6.23484Z" fill="white"/>
<path d="M31.994 6.23484H28.9893V0.322711H31.994V1.20608H29.7729V2.83709H31.7266V3.72046H29.7729V5.35133H31.994V6.23484Z" fill="white"/>
<path d="M41.9844 6.23484V1.20608H43.2705V0.322711H39.915V1.20608H41.201V6.23484H41.9844Z" fill="white"/>
<path fill-rule="evenodd" clip-rule="evenodd" d="M45.2864 3.2278C45.2864 1.61148 46.5028 0.115234 48.0751 0.115234C49.6475 0.115234 50.8639 1.61148 50.8639 3.2278C50.8639 4.79898 49.7378 6.3311 48.0751 6.35533C46.4125 6.3311 45.2864 4.79898 45.2864 3.2278ZM48.0751 5.50423C47.0241 5.48969 46.1122 4.55272 46.1122 3.24304C46.1122 1.96785 46.9808 0.983369 48.0751 0.967441C49.1695 0.983369 50.0381 1.96785 50.0381 3.24304C50.0381 4.55272 49.1262 5.48969 48.0751 5.50423Z" fill="white"/>
<path d="M52.43 6.23484H51.6464V0.322711H52.43L54.9449 4.62696V0.322711H55.7285V6.23484H54.9463L52.43 1.92837V6.23484Z" fill="white"/>
<path d="M1.37576 7.48953L10.2279 17.4562L1.41826 27.5102C1.16118 27.326 1.02336 26.9271 1.02103 26.4119L0.941187 8.5675C0.93873 8.00324 1.12077 7.65906 1.37576 7.48953Z" fill="white"/>
<path d="M2.38273 7.50297L13.147 14.1249L10.5941 17.0382L2.00711 7.36987C2.13719 7.38912 2.26776 7.43219 2.38273 7.50297Z" fill="white"/>
<path d="M13.6257 20.4514L10.9628 17.4533L13.623 14.4177L17.2863 16.671C18.1887 17.2259 17.7271 17.92 17.2863 18.192L13.6257 20.4514Z" fill="white"/>
<path d="M2.38273 27.3897C2.30141 27.441 2.22305 27.4811 2.148 27.513L10.5967 17.8713L13.1492 20.7452L2.38273 27.3897Z" fill="white"/>
</svg>
