<svg width="103" height="30" viewBox="0 0 103 30" fill="none" xmlns="http://www.w3.org/2000/svg">
<path d="M14.9292 0.326172C15.0796 1.86749 14.5379 3.38634 13.7462 4.50275C12.9201 5.60179 11.5985 6.44242 10.3113 6.33415C10.1428 4.85105 10.795 3.27398 11.5251 2.31181C12.3503 1.21991 13.7834 0.383371 14.9292 0.326172Z" fill="white"/>
<path d="M19.1431 9.2175C18.9994 9.31418 16.6188 10.9163 16.6449 14.1837C16.6757 18.1295 19.7066 19.4338 19.7429 19.4471C19.7248 19.539 19.2682 21.3316 18.1314 23.1477C17.1821 24.7493 16.1875 26.3151 14.6077 26.3417C13.8564 26.3617 13.3491 26.1182 12.8205 25.8645C12.2694 25.6 11.6951 25.3243 10.7968 25.3243C9.84448 25.3243 9.24467 25.6091 8.6663 25.8837C8.16585 26.1213 7.68145 26.3513 6.99861 26.3825C5.49401 26.4448 4.34449 24.6747 3.36075 23.0874C1.39417 19.8485 -0.136702 13.9601 1.91593 9.95303C2.91055 7.98782 4.72404 6.72229 6.66254 6.68858C7.51617 6.6689 8.33489 7.03985 9.05261 7.36504C9.60147 7.61372 10.0913 7.83563 10.4924 7.83563C10.8448 7.83563 11.3208 7.62259 11.8757 7.37428C12.7501 6.98297 13.8201 6.50407 14.9102 6.63342C15.6557 6.65794 17.7772 6.96539 19.1459 9.21557L19.1431 9.2175Z" fill="white"/>
<path fill-rule="evenodd" clip-rule="evenodd" d="M30.0404 1.20587H27.9139V8.33981H30.0404C31.9213 8.33981 33.0262 7.01981 33.0262 4.77037C33.0262 2.52587 31.9169 1.20587 30.0404 1.20587ZM28.7031 2.00677V7.53891H29.9877C31.4215 7.53891 32.2194 6.55015 32.2194 4.78026C32.2194 2.99553 31.4258 2.00677 29.9877 2.00677H28.7031Z" fill="white"/>
<path fill-rule="evenodd" clip-rule="evenodd" d="M36.0745 8.4288C34.8118 8.4288 33.9612 7.40543 33.9612 5.76902C33.9612 4.12767 34.8118 3.10924 36.0745 3.10924C37.3328 3.10924 38.1834 4.12767 38.1834 5.76902C38.1834 7.40543 37.3328 8.4288 36.0745 8.4288ZM37.4074 5.76902C37.4074 6.98026 36.8812 7.6724 36.0745 7.6724C35.2678 7.6724 34.7372 6.98026 34.7372 5.76902C34.7372 4.55778 35.2678 3.86565 36.0745 3.86565C36.8812 3.86565 37.4074 4.55778 37.4074 5.76902Z" fill="white"/>
<path d="M43.003 8.33981H43.7791L45.0506 3.19823H44.2964L43.3845 7.38071H43.367L42.3322 3.19823H41.5956L40.5653 7.38071H40.5478L39.6358 3.19823H38.8773L40.1532 8.33981H40.9292L41.9552 4.36003H41.9727L43.003 8.33981Z" fill="white"/>
<path d="M46.6915 3.19823H45.9725V8.33981H46.7354V5.31419C46.7354 4.44408 47.2045 3.87059 47.9235 3.87059C48.625 3.87059 48.9714 4.32542 48.9714 5.15599V8.33981H49.7343V5.00273C49.7343 3.83598 49.1556 3.10924 48.1559 3.10924C47.45 3.10924 46.9633 3.4652 46.7091 4.01891H46.6915V3.19823Z" fill="white"/>
<path d="M51.042 1.20587V8.33981H51.8049V1.20587H51.042Z" fill="white"/>
<path fill-rule="evenodd" clip-rule="evenodd" d="M52.911 5.76902C52.911 7.40543 53.7615 8.4288 55.0243 8.4288C56.2826 8.4288 57.1332 7.40543 57.1332 5.76902C57.1332 4.12767 56.2826 3.10924 55.0243 3.10924C53.7615 3.10924 52.911 4.12767 52.911 5.76902ZM55.0242 7.6724C55.831 7.6724 56.3571 6.98026 56.3571 5.76902C56.3571 4.55778 55.831 3.86565 55.0242 3.86565C54.2175 3.86565 53.687 4.55778 53.687 5.76902C53.687 6.98026 54.2175 7.6724 55.0242 7.6724Z" fill="white"/>
<path fill-rule="evenodd" clip-rule="evenodd" d="M59.5326 8.4288C58.625 8.4288 58.0156 7.81082 58.0156 6.88633C58.0156 6.00633 58.6163 5.45262 59.6685 5.3834L60.9751 5.29936V4.86924C60.9751 4.24138 60.6068 3.86565 59.9754 3.86565C59.3879 3.86565 59.0196 4.17711 58.9232 4.68138H58.1866C58.2392 3.79149 58.9144 3.10924 59.993 3.10924C61.0628 3.10924 61.738 3.76183 61.738 4.7852V8.33981H61.0145V7.45487H60.997C60.7252 8.04318 60.1464 8.4288 59.5326 8.4288ZM60.9751 6.387C60.9751 7.12857 60.4226 7.69712 59.7036 7.69712C59.1555 7.69712 58.7916 7.37577 58.7916 6.88633C58.7916 6.40183 59.1424 6.09531 59.7562 6.05082L60.9751 5.96677V6.387Z" fill="white"/>
<path fill-rule="evenodd" clip-rule="evenodd" d="M62.7826 5.76902C62.7826 7.38071 63.5718 8.4288 64.7337 8.4288C65.3914 8.4288 65.9131 8.06296 66.2069 7.4697H66.22V8.33981H66.9478V1.20587H66.1849V4.03374H66.1674C65.8956 3.47014 65.3694 3.10924 64.7162 3.10924C63.5674 3.10924 62.7826 4.15733 62.7826 5.76902ZM64.8784 3.86565C64.0717 3.86565 63.5631 4.60722 63.5631 5.76902C63.5631 6.93577 64.0717 7.6724 64.8784 7.6724C65.6632 7.6724 66.1893 6.92093 66.1893 5.76902C66.1893 4.62205 65.6632 3.86565 64.8784 3.86565Z" fill="white"/>
<path fill-rule="evenodd" clip-rule="evenodd" d="M72.3079 8.4288C71.0452 8.4288 70.1946 7.40543 70.1946 5.76902C70.1946 4.12767 71.0452 3.10924 72.3079 3.10924C73.5663 3.10924 74.4168 4.12767 74.4168 5.76902C74.4168 7.40543 73.5663 8.4288 72.3079 8.4288ZM73.6408 5.76902C73.6408 6.98026 73.1147 7.6724 72.3079 7.6724C71.5012 7.6724 70.9707 6.98026 70.9707 5.76902C70.9707 4.55778 71.5012 3.86565 72.3079 3.86565C73.1147 3.86565 73.6408 4.55778 73.6408 5.76902Z" fill="white"/>
<path d="M76.2025 3.19823H75.4834V8.33981H76.2463V5.31419C76.2463 4.44408 76.7154 3.87059 77.4345 3.87059C78.136 3.87059 78.4824 4.32542 78.4824 5.15599V8.33981H79.2453V5.00273C79.2453 3.83598 78.6665 3.10924 77.6669 3.10924C76.961 3.10924 76.4743 3.4652 76.22 4.01891H76.2025V3.19823Z" fill="white"/>
<path d="M83.6627 1.95733H82.8998V3.19823H82.2202V3.9052H82.8998V7.00498C82.8998 7.99374 83.2243 8.37936 84.0617 8.37936C84.2414 8.37936 84.4519 8.36453 84.544 8.33981V7.61801C84.4914 7.6279 84.316 7.64273 84.2283 7.64273C83.8381 7.64273 83.6627 7.43015 83.6627 6.96048V3.9052H84.5484V3.19823H83.6627V1.95733Z" fill="white"/>
<path d="M85.6982 1.20587V8.33981H86.4611V5.34385C86.4611 4.45396 86.9303 3.87059 87.6888 3.87059C88.4034 3.87059 88.7673 4.36003 88.7673 5.17576V8.33981H89.5302V5.01756C89.5302 3.87059 88.9252 3.10924 87.9255 3.10924C87.2328 3.10924 86.733 3.44542 86.4787 4.01891H86.4611V1.20587H85.6982Z" fill="white"/>
<path fill-rule="evenodd" clip-rule="evenodd" d="M94.5735 6.86655H93.8237C93.6966 7.35105 93.2713 7.68228 92.6926 7.68228C91.8727 7.68228 91.3597 7.03464 91.3597 6.05082V6.00138H94.6305V5.67509C94.6305 4.11778 93.872 3.10924 92.64 3.10924C91.3816 3.10924 90.5749 4.19194 90.5749 5.7888C90.5749 7.40543 91.3685 8.4288 92.675 8.4288C93.6703 8.4288 94.442 7.76633 94.5735 6.86655ZM92.6268 3.85576C91.9121 3.85576 91.4123 4.47374 91.3641 5.32902H93.8413C93.8237 4.46879 93.3458 3.85576 92.6268 3.85576Z" fill="white"/>
<path fill-rule="evenodd" clip-rule="evenodd" d="M35.3018 25.8284L34.197 22.1475H29.5933L28.4884 25.8284H26.5382L30.8991 12.209H32.9247L37.2856 25.8284H35.3018ZM30.0704 20.4486L31.87 14.4742H31.9202L33.7198 20.4486H30.0704Z" fill="white"/>
<path fill-rule="evenodd" clip-rule="evenodd" d="M47.1019 20.8639C47.1019 17.721 45.6287 15.7389 43.3939 15.7389C42.1216 15.7389 41.1088 16.4657 40.5898 17.6077H40.5564V15.8994H38.807V29.1129H40.6149V24.1956H40.6568C41.159 25.2998 42.1634 25.9983 43.4274 25.9983C45.6371 25.9983 47.1019 24.0068 47.1019 20.8639ZM42.9168 24.2711C44.3481 24.2711 45.2437 22.9497 45.2437 20.8639C45.2437 18.7875 44.3481 17.4567 42.9168 17.4567C41.5357 17.4567 40.6066 18.8158 40.6066 20.8639C40.6066 22.9309 41.5273 24.2711 42.9168 24.2711Z" fill="white"/>
<path fill-rule="evenodd" clip-rule="evenodd" d="M53.4864 15.7389C55.7213 15.7389 57.1944 17.721 57.1944 20.8639C57.1944 24.0068 55.7296 25.9983 53.5199 25.9983C52.256 25.9983 51.2515 25.2998 50.7493 24.1956H50.7075V29.1129H48.8995V15.8994H50.6489V17.6077H50.6824C51.2013 16.4657 52.2141 15.7389 53.4864 15.7389ZM55.3362 20.8639C55.3362 22.9497 54.4406 24.2711 53.0093 24.2711C51.6198 24.2711 50.6991 22.9309 50.6991 20.8639C50.6991 18.8158 51.6282 17.4567 53.0093 17.4567C54.4406 17.4567 55.3362 18.7875 55.3362 20.8639Z" fill="white"/>
<path d="M64.4056 22.0342H62.5558C62.673 24.4976 64.4809 26.0549 67.1594 26.0549C70.0221 26.0549 71.8217 24.4598 71.8217 21.9115C71.8217 19.9201 70.7921 18.7969 68.3145 18.1362L66.9837 17.7681C65.4268 17.334 64.7906 16.7677 64.7906 15.805C64.7906 14.5969 65.7867 13.7663 67.2431 13.7663C68.6996 13.7663 69.6956 14.5875 69.8044 15.9466H71.6291C71.5706 13.5965 69.8212 11.9825 67.2682 11.9825C64.6902 11.9825 62.8739 13.5965 62.8739 15.9466C62.8739 17.8437 63.9034 19.014 66.1215 19.618L67.6868 20.0428C69.252 20.4769 69.9132 21.1093 69.9132 22.1664C69.9132 23.3839 68.8167 24.2711 67.2933 24.2711C65.703 24.2711 64.5395 23.3839 64.4056 22.0342Z" fill="white"/>
<path d="M76.0383 13.5493H74.2219V15.8994H72.9413V17.5133H74.2219V23.214C74.2219 25.13 74.9167 25.8945 76.6995 25.8945C77.1013 25.8945 77.5031 25.8567 77.704 25.8001V24.1861C77.5868 24.2145 77.2938 24.2333 77.1097 24.2333C76.3731 24.2333 76.0383 23.8464 76.0383 22.9875V17.5133H77.7123V15.8994H76.0383V13.5493Z" fill="white"/>
<path fill-rule="evenodd" clip-rule="evenodd" d="M78.9994 20.8639C78.9994 24.0634 80.6567 26.0172 83.1761 26.0172C85.6956 26.0172 87.3529 24.0634 87.3529 20.8639C87.3529 17.6738 85.6872 15.7201 83.1761 15.7201C80.665 15.7201 78.9994 17.6738 78.9994 20.8639ZM83.1761 24.3371C84.5991 24.3371 85.5114 23.0724 85.5114 20.8639C85.5114 18.6648 84.5907 17.4001 83.1761 17.4001C81.7615 17.4001 80.8408 18.6648 80.8408 20.8639C80.8408 23.0724 81.7615 24.3371 83.1761 24.3371Z" fill="white"/>
<path d="M89.1589 15.8994H90.8831V17.5888H90.925C91.2179 16.4279 92.0047 15.7389 93.0427 15.7389C93.3021 15.7389 93.5281 15.7861 93.6621 15.8144V17.7115C93.5198 17.6454 93.2017 17.5983 92.8501 17.5983C91.6867 17.5983 90.9668 18.476 90.9668 19.8823V25.8284H89.1589V15.8994Z" fill="white"/>
<path fill-rule="evenodd" clip-rule="evenodd" d="M101.026 22.919H102.742C102.491 24.7312 100.967 26.0242 98.9501 26.0242C96.3637 26.0242 94.7984 24.0516 94.7984 20.9181C94.7984 17.8035 96.3888 15.7271 98.8747 15.7271C101.319 15.7271 102.842 17.6714 102.842 20.6822V21.3806H96.6231V21.5033C96.6231 23.2305 97.5439 24.3725 98.9919 24.3725C100.021 24.3725 100.783 23.7873 101.026 22.919ZM96.6231 20.0727L101.026 20.0257C101.026 19.6074 100.871 18.8319 100.506 18.4207C100.141 18.0094 99.6041 17.6972 98.8747 17.6972C97.4059 17.6972 96.6231 18.8037 96.6231 20.0727Z" fill="white"/>
</svg>
